<svg width="21" height="20" viewBox="0 0 21 20" fill="none" xmlns="http://www.w3.org/2000/svg">
<path id="Vector" d="M18.5 10C18.4998 8.21688 17.9039 6.48494 16.8069 5.07919C15.7099 3.67345 14.1747 2.67448 12.4451 2.24094C10.7155 1.80739 8.89064 1.96411 7.26028 2.68621C5.62992 3.40831 4.28753 4.65439 3.44629 6.22659C2.60504 7.79879 2.31316 9.60698 2.61699 11.364C2.92083 13.1211 3.80296 14.7262 5.12331 15.9246C6.44365 17.1231 8.12653 17.846 9.90471 17.9787C11.6829 18.1114 13.4544 17.6462 14.938 16.657L16.048 18.321C14.4062 19.4187 12.475 20.0032 10.5 20C4.977 20 0.5 15.523 0.5 10C0.5 4.477 4.977 0 10.5 0C16.023 0 20.5 4.477 20.5 10V11.5C20.5001 12.2488 20.2601 12.9778 19.8152 13.5801C19.3703 14.1823 18.744 14.626 18.0283 14.846C17.3126 15.066 16.5453 15.0507 15.8389 14.8023C15.1326 14.5539 14.5245 14.0855 14.104 13.466C13.4366 14.16 12.583 14.6465 11.6457 14.8671C10.7085 15.0877 9.72747 15.033 8.82056 14.7096C7.91366 14.3861 7.11943 13.8077 6.53331 13.0438C5.94718 12.2799 5.59408 11.363 5.51644 10.4033C5.4388 9.44358 5.63991 8.48186 6.09562 7.63367C6.55133 6.78549 7.24225 6.08692 8.08537 5.6219C8.92849 5.15688 9.88794 4.94519 10.8485 5.01227C11.809 5.07934 12.7297 5.42232 13.5 6H15.5V11.5C15.5 11.8978 15.658 12.2794 15.9393 12.5607C16.2206 12.842 16.6022 13 17 13C17.3978 13 17.7794 12.842 18.0607 12.5607C18.342 12.2794 18.5 11.8978 18.5 11.5V10ZM10.5 7C9.70435 7 8.94129 7.31607 8.37868 7.87868C7.81607 8.44129 7.5 9.20435 7.5 10C7.5 10.7956 7.81607 11.5587 8.37868 12.1213C8.94129 12.6839 9.70435 13 10.5 13C11.2956 13 12.0587 12.6839 12.6213 12.1213C13.1839 11.5587 13.5 10.7956 13.5 10C13.5 9.20435 13.1839 8.44129 12.6213 7.87868C12.0587 7.31607 11.2956 7 10.5 7Z" fill="#B1B1B1"/>
</svg>
