<svg width="41" height="46" viewBox="0 0 41 46" fill="none" xmlns="http://www.w3.org/2000/svg">
<g id="Vector">
<path d="M3.72999 41.4016L0 0H41L37.265 41.3951L20.4751 46L3.72999 41.4016Z" fill="#1572B6"/>
<path d="M20.5 42.481L34.0681 38.7599L37.26 3.38593H20.5V42.481Z" fill="#33A9DC"/>
<path d="M20.5 18.3852H27.2924L27.7607 13.1856H20.5V8.1075H33.3706L31.9872 23.4633H20.5V18.3852Z" fill="white"/>
<path d="M20.5316 31.5724L20.5083 31.579L14.7921 30.0511L14.4267 26.0015H9.27349L9.99259 33.9743L20.5066 36.8624L20.5316 36.8559V31.5724Z" fill="#EBEBEB"/>
<path d="M26.8556 23.2481L26.2378 30.0479L20.5133 31.5757V36.8591L31.0356 33.9743L32.0055 23.2481H26.8556Z" fill="white"/>
<path d="M20.5183 8.1075V13.1856H8.11929L7.65927 8.1075H20.5183ZM20.5 18.3852V23.4633H14.8552L14.3968 18.3852H20.5Z" fill="#EBEBEB"/>
</g>
</svg>
