<svg width="47" height="47" viewBox="0 0 47 47" fill="none" xmlns="http://www.w3.org/2000/svg">
<g id="devicon:figma" clip-path="url(#clip0_64_187)">
<path id="Vector" d="M16.707 47.3672C21.0766 47.3672 24.6016 43.8422 24.6016 39.4727V31.5781H16.707C12.3375 31.5781 8.8125 35.1031 8.8125 39.4727C8.8125 43.8422 12.3375 47.3672 16.707 47.3672Z" fill="#0ACF83"/>
<path id="Vector_2" d="M8.8125 23.6836C8.8125 19.3141 12.3375 15.7891 16.707 15.7891H24.6016V31.5781H16.707C12.3375 31.5781 8.8125 28.0531 8.8125 23.6836Z" fill="#A259FF"/>
<path id="Vector_3" d="M8.8125 7.89453C8.8125 3.525 12.3375 0 16.707 0H24.6016V15.7891H16.707C12.3375 15.7891 8.8125 12.2641 8.8125 7.89453Z" fill="#F24E1E"/>
<path id="Vector_4" d="M24.6016 0H32.4961C36.8656 0 40.3906 3.525 40.3906 7.89453C40.3906 12.2641 36.8656 15.7891 32.4961 15.7891H24.6016V0Z" fill="#FF7262"/>
<path id="Vector_5" d="M40.3906 23.6836C40.3906 28.0531 36.8656 31.5781 32.4961 31.5781C28.1266 31.5781 24.6016 28.0531 24.6016 23.6836C24.6016 19.3141 28.1266 15.7891 32.4961 15.7891C36.8656 15.7891 40.3906 19.3141 40.3906 23.6836Z" fill="#1ABCFE"/>
</g>
<defs>
<clipPath id="clip0_64_187">
<rect width="47" height="47" fill="white"/>
</clipPath>
</defs>
</svg>
