<svg width="47" height="46" viewBox="0 0 47 46" fill="none" xmlns="http://www.w3.org/2000/svg">
<path id="Vector" d="M45.6322 20.9511L25.5481 0.86746C24.3922 -0.289153 22.5163 -0.289153 21.3586 0.86746L17.1884 5.03841L22.4787 10.3288C23.7086 9.91376 25.1181 10.1922 26.0979 11.172C27.0829 12.1581 27.3591 13.5796 26.9339 14.8135L32.0325 19.9126C33.266 19.4873 34.6897 19.7621 35.6743 20.7489C37.0518 22.1253 37.0518 24.3565 35.6743 25.7336C35.347 26.0611 34.9583 26.3209 34.5306 26.4981C34.1028 26.6754 33.6443 26.7666 33.1813 26.7666C32.7183 26.7666 32.2598 26.6754 31.832 26.4981C31.4043 26.3209 31.0156 26.0611 30.6883 25.7336C30.1965 25.2415 29.8612 24.6149 29.7247 23.9327C29.5883 23.2505 29.6566 22.5431 29.9212 21.8997L25.1665 17.145L25.1658 29.6589C25.5108 29.8288 25.8257 30.0538 26.0983 30.325C27.475 31.7014 27.475 33.9319 26.0983 35.3112C24.7212 36.6875 22.4893 36.6875 21.1137 35.3112C19.737 33.9323 19.737 31.7018 21.1137 30.325C21.4435 29.9947 21.8359 29.7333 22.2678 29.5561V16.9263C21.8355 16.7497 21.4431 16.4881 21.1137 16.1571C20.0708 15.1149 19.8197 13.5844 20.3547 12.3031L15.139 7.08745L1.36771 20.8582C0.812114 21.414 0.5 22.1677 0.5 22.9535C0.5 23.7394 0.812114 24.4931 1.36771 25.0489L21.4522 45.1325C22.6088 46.2892 24.484 46.2892 25.6424 45.1325L45.6326 25.1421C46.1881 24.5862 46.5001 23.8325 46.5 23.0466C46.4999 22.2607 46.1878 21.507 45.6322 20.9511Z" fill="#F34F29"/>
</svg>
