<svg width="36" height="36" viewBox="0 0 36 36" fill="none" xmlns="http://www.w3.org/2000/svg">
<g id="Social Buttons">
<rect x="0.704348" y="0.704348" width="34.513" height="34.513" rx="17.2565" stroke="#727272" stroke-width="1.4087"/>
<path id="Vector" d="M17.6092 6.33914C11.3825 6.33914 6.33911 11.51 6.33911 17.894C6.33776 20.3196 7.08136 22.684 8.46445 24.6519C9.84753 26.6197 11.7999 28.0911 14.0445 28.8573C14.608 28.9579 14.8199 28.6112 14.8199 28.3073C14.8199 28.0335 14.8052 27.1241 14.8052 26.1558C11.9742 26.6908 11.2416 25.4486 11.0162 24.7981C10.8889 24.4653 10.34 23.4404 9.86103 23.1654C9.46657 22.9493 8.90307 22.4143 9.84638 22.4004C10.7345 22.3854 11.3678 23.2382 11.5797 23.5848C12.594 25.3319 14.2136 24.8408 14.8616 24.5381C14.9608 23.787 15.256 23.2821 15.5806 22.9932C13.073 22.7043 10.4527 21.7072 10.4527 17.2874C10.4527 16.0302 10.8889 14.9914 11.6079 14.1826C11.4952 13.8937 11.1007 12.7094 11.7206 11.1206C11.7206 11.1206 12.6639 10.8167 14.8199 12.3038C15.7374 12.0431 16.6853 11.9121 17.6374 11.9144C18.5954 11.9144 19.5533 12.0438 20.4549 12.3038C22.6109 10.8016 23.5542 11.1206 23.5542 11.1206C24.1741 12.7094 23.7796 13.8937 23.6669 14.1826C24.3848 14.9914 24.8221 16.0164 24.8221 17.2874C24.8221 21.7222 22.1883 22.7043 19.6807 22.9932C20.0887 23.3537 20.4414 24.047 20.4414 25.1309C20.4414 26.6758 20.4268 27.9179 20.4268 28.3085C20.4268 28.6112 20.6387 28.9717 21.2022 28.8562C23.4391 28.0816 25.3828 26.6073 26.7598 24.6409C28.1368 22.6744 28.8777 20.3148 28.8782 17.894C28.8782 11.51 23.8349 6.33914 17.6081 6.33914H17.6092Z" fill="#727272"/>
</g>
</svg>
