<svg width="41" height="46" viewBox="0 0 41 46" fill="none" xmlns="http://www.w3.org/2000/svg">
<g id="Vector">
<path d="M3.73135 41.4016L0 0H41L37.2637 41.3951L20.4751 46L3.73135 41.4016Z" fill="#E44F26"/>
<path d="M20.5 42.481L34.067 38.7599L37.2587 3.38593H20.5V42.481Z" fill="#F1662A"/>
<path d="M20.5 18.7401H13.7082L13.2399 13.5404H20.5V8.46236H7.63042L9.01369 23.8181H20.5V18.7401ZM20.5 31.9273L20.4768 31.9339L14.761 30.4076L14.3957 26.358H9.24285L9.96189 34.3291L20.4768 37.2173L20.5 37.2107V31.9273Z" fill="#EBEBEB"/>
<path d="M20.4817 18.7401V23.8181H26.8019L26.2075 30.4044L20.4817 31.9322V37.2156L31.0049 34.3291L31.0813 33.4716L32.2869 20.1036L32.4131 18.7401H20.4817ZM20.4817 8.46236V13.5404H32.8797L33.3397 8.46236H20.4817Z" fill="white"/>
</g>
</svg>
