<svg width="51" height="51" viewBox="0 0 51 51" fill="none" xmlns="http://www.w3.org/2000/svg">
<g id="Vector">
<path d="M0 0H51V51H0V0Z" fill="#F7DF1E"/>
<path d="M13.4098 42.6193L17.3125 40.2573C18.0656 41.5923 18.7505 42.7219 20.3934 42.7219C21.9682 42.7219 22.9614 42.1059 22.9614 39.7097V23.414H27.754V39.7774C27.754 44.7413 24.8442 47.0009 20.5988 47.0009C16.7649 47.0009 14.5396 45.0157 13.4098 42.6193ZM30.3572 42.1057L34.2594 39.8463C35.2868 41.524 36.622 42.7563 38.9839 42.7563C40.9699 42.7563 42.2362 41.7634 42.2362 40.394C42.2362 38.7508 40.9353 38.1687 38.7443 37.2105L37.5464 36.6965C34.0885 35.2249 31.7949 33.3761 31.7949 29.4734C31.7949 25.8787 34.5336 23.1399 38.813 23.1399C41.8598 23.1399 44.0508 24.2013 45.6255 26.9742L41.8937 29.3708C41.0719 27.8988 40.1822 27.3169 38.8128 27.3169C37.4091 27.3169 36.519 28.207 36.519 29.3708C36.519 30.8086 37.4091 31.3909 39.463 32.281L40.6611 32.7944C44.7352 34.5405 47.0288 36.3206 47.0288 40.3257C47.0288 44.6395 43.6397 47.0015 39.0865 47.0015C34.6362 47.0015 31.7606 44.8788 30.3572 42.1057Z" fill="black"/>
</g>
</svg>
