<svg width="36" height="36" viewBox="0 0 36 36" fill="none" xmlns="http://www.w3.org/2000/svg">
<g id="Social Buttons">
<rect x="0.782595" y="0.704348" width="34.513" height="34.513" rx="17.2565" stroke="#727272" stroke-width="1.4087"/>
<path id="Vector" d="M25.9826 7.74783C26.5845 7.74783 27.1618 7.98695 27.5874 8.41257C28.013 8.8382 28.2521 9.41547 28.2521 10.0174V25.9044C28.2521 26.5063 28.013 27.0836 27.5874 27.5092C27.1618 27.9348 26.5845 28.1739 25.9826 28.1739H10.0956C9.49369 28.1739 8.91642 27.9348 8.49079 27.5092C8.06516 27.0836 7.82605 26.5063 7.82605 25.9044V10.0174C7.82605 9.41547 8.06516 8.8382 8.49079 8.41257C8.91642 7.98695 9.49369 7.74783 10.0956 7.74783H25.9826ZM25.4152 25.337V19.3226C25.4152 18.3415 25.0254 17.4005 24.3317 16.7068C23.6379 16.013 22.6969 15.6232 21.7158 15.6232C20.7512 15.6232 19.6278 16.2133 19.0831 17.0984V15.8388H15.917V25.337H19.0831V19.7425C19.0831 18.8687 19.7867 18.1538 20.6604 18.1538C21.0818 18.1538 21.4859 18.3212 21.7838 18.6191C22.0818 18.917 22.2491 19.3211 22.2491 19.7425V25.337H25.4152ZM12.229 14.0572C12.7346 14.0572 13.2195 13.8564 13.5771 13.4988C13.9346 13.1413 14.1354 12.6564 14.1354 12.1508C14.1354 11.0954 13.2844 10.233 12.229 10.233C11.7204 10.233 11.2326 10.4351 10.8729 10.7947C10.5133 11.1544 10.3112 11.6422 10.3112 12.1508C10.3112 13.2061 11.1737 14.0572 12.229 14.0572ZM13.8064 25.337V15.8388H10.663V25.337H13.8064Z" fill="#727272"/>
</g>
</svg>
