<svg width="41" height="46" viewBox="0 0 41 46" fill="none" xmlns="http://www.w3.org/2000/svg">
<g id="Vector">
<path d="M20.1744 45.4994C19.5606 45.4996 18.9575 45.3382 18.4259 45.0314L12.8619 41.7375C12.0315 41.2727 12.4361 41.1086 12.7108 41.0127C13.5939 40.7399 14.4395 40.3578 15.2279 39.8752C15.2939 39.8447 15.3666 39.8315 15.4391 39.8369C15.5116 39.8423 15.5815 39.8661 15.6423 39.9061L19.9176 42.446C19.9972 42.4881 20.0859 42.5101 20.176 42.5101C20.2661 42.5101 20.3548 42.4881 20.4344 42.446L37.1069 32.8227C37.1849 32.776 37.2494 32.7098 37.2942 32.6306C37.3389 32.5514 37.3623 32.4619 37.362 32.371V13.1212C37.3621 13.0289 37.3383 12.938 37.2931 12.8575C37.2478 12.7769 37.1826 12.7094 37.1036 12.6614L20.4311 3.04624C20.3525 3.00197 20.2638 2.9787 20.1736 2.9787C20.0833 2.9787 19.9946 3.00197 19.916 3.04624L3.25326 12.6646C3.17378 12.7116 3.10778 12.7784 3.06166 12.8584C3.01554 12.9384 2.99086 13.0289 2.99001 13.1212V32.3629C2.99024 32.4536 3.01459 32.5427 3.06056 32.6209C3.10653 32.6991 3.17248 32.7638 3.25164 32.8081L7.82439 35.4471C10.3025 36.6854 11.8203 35.2261 11.8203 33.7604V14.7625C11.8203 14.6332 11.8716 14.5092 11.963 14.4178C12.0545 14.3264 12.1785 14.275 12.3078 14.275H14.4203C14.5496 14.275 14.6736 14.3264 14.765 14.4178C14.8564 14.5092 14.9078 14.6332 14.9078 14.7625V33.762C14.9078 37.0689 13.1073 38.962 9.97101 38.962C8.618 38.9856 7.28621 38.6237 6.13114 37.9187L1.74851 35.4049C1.21647 35.095 0.775002 34.6511 0.468186 34.1173C0.161371 33.5835 -5.89006e-05 32.9786 1.15567e-05 32.3629V13.1212C-0.00156987 12.5046 0.159178 11.8984 0.4661 11.3636C0.773023 10.8287 1.21531 10.3841 1.74851 10.0744L18.4226 0.447868C18.9597 0.154015 19.5621 0 20.1744 0C20.7866 0 21.389 0.154015 21.9261 0.447868L38.5986 10.0744C39.1306 10.3836 39.5722 10.8269 39.8793 11.3601C40.1864 11.8934 40.3483 12.4978 40.3488 13.1131V32.3629C40.3479 32.9785 40.1858 33.5833 39.8788 34.1169C39.5718 34.6506 39.1304 35.0946 38.5986 35.4049L21.9261 45.0314C21.3935 45.3387 20.7893 45.5001 20.1744 45.4994Z" fill="#83CD29"/>
<path d="M17.0121 25.923C17.0121 25.7937 17.0635 25.6697 17.1549 25.5783C17.2463 25.4869 17.3703 25.4355 17.4996 25.4355H19.656C19.7712 25.4359 19.8826 25.477 19.9703 25.5517C20.0581 25.6264 20.1166 25.7297 20.1354 25.8434C20.4604 28.0387 21.4354 29.1454 25.844 29.1454C29.3556 29.1454 30.8523 28.3507 30.8523 26.4869C30.8523 25.4127 30.4281 24.6149 24.9698 24.0802C20.4068 23.6285 17.5858 22.6177 17.5858 18.9712C17.5858 15.6075 20.4214 13.6006 25.1745 13.6006C30.5159 13.6006 33.1598 15.4547 33.4945 19.4327C33.4996 19.4992 33.4911 19.5659 33.4694 19.6289C33.4477 19.6919 33.4133 19.7497 33.3684 19.7989C33.3235 19.8481 33.269 19.8876 33.2082 19.9149C33.1474 19.9422 33.0817 19.9567 33.0151 19.9576H30.8441C30.7352 19.9561 30.63 19.9181 30.5451 19.8498C30.4603 19.7815 30.4008 19.6867 30.3761 19.5806C29.8578 17.2715 28.5886 16.5337 25.1761 16.5337C21.3411 16.5337 20.8959 17.8695 20.8959 18.8705C20.8959 20.0827 21.4224 20.437 26.5996 21.1211C31.7233 21.7987 34.1575 22.7575 34.1575 26.3585C34.1575 29.992 31.1285 32.072 25.8456 32.072C18.5413 32.0817 17.0121 28.7326 17.0121 25.923Z" fill="#83CD29"/>
</g>
</svg>
