<svg width="17" height="20" viewBox="0 0 17 20" fill="none" xmlns="http://www.w3.org/2000/svg">
<g id="Icons">
<path id="Vector" d="M11.6318 1.58173C10.8366 0.690686 9.72593 0.199997 8.5 0.199997C7.26753 0.199997 6.15317 0.687717 5.36162 1.57325C4.5615 2.46853 4.17166 3.68529 4.26319 4.99917C4.44463 7.59129 6.34523 9.69994 8.5 9.69994C10.6548 9.69994 12.5521 7.59172 12.7364 5.00001C12.8292 3.69801 12.4369 2.4838 11.6318 1.58173ZM15.6921 19.1999H1.30789C1.11961 19.2024 0.933159 19.1614 0.762092 19.0797C0.591025 18.9981 0.439648 18.8779 0.318975 18.7279C0.0533573 18.3983 -0.0537071 17.9484 0.0255696 17.4933C0.370464 15.5076 1.44683 13.8396 3.13861 12.6687C4.6416 11.6292 6.54546 11.0571 8.5 11.0571C10.4545 11.0571 12.3584 11.6296 13.8614 12.6687C15.5532 13.8392 16.6295 15.5072 16.9744 17.4929C17.0537 17.9479 16.9466 18.3979 16.681 18.7274C16.5604 18.8775 16.409 18.9978 16.238 19.0795C16.0669 19.1613 15.8804 19.2024 15.6921 19.1999Z" fill="#484848"/>
</g>
</svg>
