<svg width="20" height="19" viewBox="0 0 20 19" fill="none" xmlns="http://www.w3.org/2000/svg">
<g id="Icons">
<g id="Project">
<path d="M11.2839 0.237393C10.6839 -0.0756068 9.86093 -0.0806069 9.25693 0.231393C6.67893 1.56339 4.34193 3.08939 2.29693 4.77939C2.02293 5.00539 1.84293 5.32039 1.84593 5.68139C1.84893 6.04139 2.03393 6.35239 2.30593 6.57539C4.33493 8.23539 6.67393 9.76239 9.20593 11.0834C9.80593 11.3964 10.6289 11.4014 11.2329 11.0894C13.8109 9.75739 16.1479 8.23139 18.1929 6.54139C18.4669 6.31539 18.6469 6.00039 18.6439 5.63939C18.6409 5.27939 18.4559 4.96839 18.1839 4.74539C16.1549 3.08539 13.8159 1.55839 11.2839 0.237393Z" fill="#484848"/>
<path d="M19.2029 10.3864C19.2893 10.3356 19.3646 10.2681 19.4244 10.1877C19.4842 10.1074 19.5273 10.0159 19.5512 9.9186C19.575 9.82132 19.5792 9.72024 19.5634 9.62134C19.5475 9.52243 19.512 9.4277 19.459 9.34273C19.406 9.25776 19.3364 9.18428 19.2545 9.12661C19.1726 9.06895 19.08 9.02828 18.9821 9.007C18.8843 8.98571 18.7831 8.98425 18.6847 9.0027C18.5862 9.02114 18.4925 9.05912 18.4089 9.11439L12.3009 12.9274C11.7569 13.2674 11.0179 13.4564 10.2449 13.4564C9.47093 13.4564 8.73193 13.2664 8.18793 12.9274L2.14793 9.15739C1.97912 9.0521 1.77539 9.01818 1.58157 9.0631C1.38775 9.10801 1.21972 9.22808 1.11443 9.39689C1.00913 9.5657 0.975216 9.76943 1.02013 9.96325C1.06505 10.1571 1.18512 10.3251 1.35393 10.4304L7.39393 14.2004C8.22293 14.7174 9.25093 14.9564 10.2439 14.9564C11.2389 14.9564 12.2669 14.7164 13.0959 14.1994L19.2029 10.3864Z" fill="#484848"/>
<path d="M19.2029 14.1414C19.2893 14.0906 19.3646 14.0231 19.4244 13.9427C19.4842 13.8624 19.5273 13.7709 19.5512 13.6736C19.575 13.5763 19.5792 13.4752 19.5634 13.3763C19.5475 13.2774 19.512 13.1827 19.459 13.0977C19.406 13.0128 19.3364 12.9393 19.2545 12.8816C19.1726 12.824 19.08 12.7833 18.9821 12.762C18.8843 12.7407 18.7831 12.7393 18.6847 12.7577C18.5862 12.7761 18.4925 12.8141 18.4089 12.8694L13.1189 16.1724C12.3469 16.6544 11.3129 16.9154 10.2449 16.9154C9.17693 16.9154 8.14293 16.6554 7.36993 16.1724L2.14793 12.9124C2.06434 12.8602 1.97129 12.825 1.87409 12.8087C1.77689 12.7925 1.67744 12.7956 1.58143 12.8177C1.48541 12.8399 1.39471 12.8808 1.31449 12.9381C1.23428 12.9953 1.16613 13.0678 1.11393 13.1514C1.06173 13.235 1.0265 13.328 1.01026 13.4252C0.99402 13.5224 0.997084 13.6219 1.01928 13.7179C1.04147 13.8139 1.08236 13.9046 1.13961 13.9848C1.19685 14.065 1.26934 14.1332 1.35293 14.1854L6.57493 17.4454C7.63293 18.1054 8.95593 18.4154 10.2449 18.4154C11.5339 18.4154 12.8559 18.1054 13.9149 17.4444L19.2029 14.1414Z" fill="#484848"/>
</g>
</g>
</svg>
