<svg width="54" height="48" viewBox="0 0 54 48" fill="none" xmlns="http://www.w3.org/2000/svg">
<path id="Vector" d="M44.3988 15.5578C43.8241 15.3608 43.2445 15.1783 42.6606 15.0105C42.7587 14.6101 42.849 14.2145 42.9292 13.8259C44.245 7.44442 43.3848 2.30337 40.4466 0.610693C37.6296 -1.01202 33.0225 0.680027 28.3696 4.72564C27.9111 5.12506 27.4627 5.536 27.0249 5.95806C26.7318 5.6774 26.4336 5.4022 26.1303 5.13258C21.2539 0.806894 16.366 -1.01623 13.431 0.681292C10.6165 2.30906 9.78307 7.142 10.9677 13.1899C11.0856 13.7889 11.2186 14.3847 11.3668 14.977C10.6749 15.1734 10.0073 15.3824 9.36837 15.605C3.65112 17.5965 0 20.7174 0 23.9546C0 27.298 3.91964 30.6515 9.87441 32.685C10.3572 32.8491 10.844 33.0013 11.3343 33.1412C11.1751 33.7791 11.0337 34.4212 10.9103 35.067C9.78096 41.0099 10.6629 45.7286 13.4698 47.3461C16.369 49.0164 21.2349 47.2997 25.9727 43.1618C26.3569 42.8254 26.7327 42.4794 27.0996 42.1243C27.5737 42.5813 28.0604 43.025 28.5592 43.4549C33.1488 47.4004 37.6815 48.9936 40.4857 47.3718C43.382 45.6966 44.3235 40.6274 43.1013 34.46C43.005 33.9769 42.897 33.4961 42.7775 33.0182C43.1192 32.917 43.4546 32.8129 43.7816 32.7046C49.9721 30.6555 54 27.3427 54 23.9546C54 20.7056 50.231 17.5636 44.3988 15.5578ZM43.0561 30.5171C42.7608 30.6146 42.4579 30.7088 42.1491 30.8005C41.4657 28.6389 40.5435 26.3406 39.4147 23.9657C40.4918 21.6476 41.3786 19.3785 42.0428 17.2311C42.5952 17.3908 43.1312 17.5592 43.648 17.7368C48.6451 19.4556 51.6932 21.9966 51.6932 23.9546C51.6932 26.0401 48.4013 28.7475 43.0561 30.5171ZM40.8383 34.9077C41.3788 37.6347 41.4558 40.1003 41.0978 42.028C40.7763 43.7601 40.1296 44.9147 39.3297 45.3773C37.6281 46.3615 33.9888 45.0823 30.0639 41.7079C29.5999 41.3082 29.1471 40.8957 28.7061 40.4708C30.2278 38.8083 31.7484 36.8756 33.2326 34.729C35.8431 34.4976 38.3094 34.1191 40.546 33.6025C40.6537 34.0352 40.7512 34.4704 40.8383 34.9077ZM18.4098 45.2072C16.7472 45.7937 15.4229 45.8106 14.6224 45.3495C12.9191 44.3681 12.211 40.5791 13.1768 35.4969C13.2917 34.8963 13.4231 34.2991 13.5711 33.7058C15.783 34.1947 18.2313 34.5462 20.848 34.7582C22.3423 36.8587 23.9068 38.7893 25.4836 40.4799C25.1485 40.8038 24.8055 41.1195 24.4548 41.4265C22.3596 43.2562 20.2601 44.5544 18.4098 45.2072ZM10.6207 30.5042C7.98757 29.605 5.81302 28.4364 4.32253 27.1612C2.98308 26.0154 2.30702 24.8776 2.30702 23.9546C2.30702 21.99 5.23842 19.4843 10.1277 17.7813C10.7211 17.5748 11.3421 17.3798 11.9865 17.1969C12.6624 19.3928 13.5487 21.6889 14.6184 24.0106C13.5348 26.3667 12.6358 28.6994 11.9534 30.9213C11.5058 30.7932 11.0615 30.6541 10.6207 30.5042ZM13.2317 12.7471C12.2169 7.56559 12.8908 3.65697 14.587 2.67596C16.3934 1.6311 20.3882 3.12084 24.5987 6.85603C24.8732 7.10015 25.1434 7.34921 25.4089 7.60311C23.8399 9.2863 22.2898 11.2026 20.8088 13.2906C18.2691 13.5258 15.838 13.9034 13.6029 14.4094C13.4652 13.8586 13.3414 13.3042 13.2317 12.7471ZM36.5249 18.4936C35.997 17.5826 35.4494 16.683 34.8827 15.7955C36.6057 16.0132 38.2565 16.3021 39.8066 16.6553C39.3413 18.1457 38.7612 19.7037 38.0784 21.3011C37.5793 20.355 37.0614 19.419 36.5249 18.4936ZM27.0259 9.25027C28.0899 10.402 29.1556 11.6877 30.2037 13.0828C28.0775 12.9825 25.9477 12.9821 23.8214 13.0816C24.8706 11.6993 25.9453 10.4152 27.0259 9.25027ZM17.466 18.5094C16.9362 19.4274 16.428 20.3576 15.9416 21.2992C15.27 19.7075 14.6952 18.1423 14.2258 16.6309C15.7665 16.2865 17.4095 16.005 19.1215 15.7913C18.5485 16.6842 17.9965 17.5906 17.466 18.5094ZM19.1706 32.2818C17.4019 32.0846 15.7343 31.8176 14.194 31.4825C14.6707 29.9441 15.2582 28.3456 15.9443 26.7197C16.4326 27.6621 16.943 28.5928 17.4751 29.5112C18.0223 30.4553 18.5889 31.3801 19.1706 32.2818ZM27.0896 38.8211C25.9961 37.6427 24.9056 36.3388 23.8406 34.9365C24.8746 34.977 25.9286 34.9977 27 34.9977C28.1007 34.9977 29.1887 34.973 30.2596 34.9254C29.2081 36.3529 28.1464 37.6587 27.0896 38.8211ZM38.1002 26.6367C38.822 28.2805 39.4303 29.8705 39.9134 31.3826C38.3478 31.7396 36.6574 32.027 34.8762 32.2405C35.4469 31.3365 35.9996 30.4213 36.534 29.4954C37.0772 28.5542 37.5994 27.6011 38.1002 26.6367ZM34.5357 28.3439C33.7178 29.7635 32.8538 31.1562 31.9452 32.5197C30.2994 32.6362 28.6499 32.6941 27 32.6932C25.3195 32.6932 23.6849 32.6409 22.1109 32.5389C21.1786 31.1785 20.2981 29.7834 19.4714 28.3565C18.6486 26.9372 17.8802 25.4872 17.1676 24.0096C17.8784 22.5316 18.6447 21.0809 19.4647 19.6605L19.4645 19.6607C20.2842 18.2399 21.1576 16.8508 22.0828 15.4962C23.6887 15.3748 25.3355 15.3116 26.9998 15.3116C28.6717 15.3116 30.3208 15.3755 31.9262 15.4977C32.8421 16.8502 33.71 18.2346 34.5281 19.6483C35.3509 21.0655 36.1273 22.5092 36.8561 23.9769C36.1348 25.4596 35.3608 26.9162 34.5357 28.3439ZM39.2945 2.60726C41.1026 3.64917 41.8059 7.85073 40.6698 13.3606C40.5972 13.7121 40.5158 14.0701 40.4272 14.4332C38.1866 13.9165 35.7539 13.5323 33.2068 13.2936C31.7231 11.1826 30.1856 9.26333 28.6421 7.60184C29.0467 7.21229 29.4608 6.83284 29.8841 6.46384C33.8709 2.99777 37.5969 1.62921 39.2945 2.60726ZM27 19.137C29.6631 19.137 31.822 21.2939 31.822 23.9546C31.822 26.6152 29.6631 28.7721 27 28.7721C24.3369 28.7721 22.178 26.6152 22.178 23.9546C22.178 21.2939 24.3369 19.137 27 19.137Z" fill="#00D8FF"/>
</svg>
