<svg width="29" height="29" viewBox="0 0 29 29" fill="none" xmlns="http://www.w3.org/2000/svg">
<path d="M25.7778 0C26.6324 0 27.452 0.339483 28.0562 0.943767C28.6605 1.54805 29 2.36764 29 3.22222V25.7778C29 26.6324 28.6605 27.452 28.0562 28.0562C27.452 28.6605 26.6324 29 25.7778 29H3.22222C2.36764 29 1.54805 28.6605 0.943767 28.0562C0.339483 27.452 0 26.6324 0 25.7778V3.22222C0 2.36764 0.339483 1.54805 0.943767 0.943767C1.54805 0.339483 2.36764 0 3.22222 0H25.7778ZM24.9722 24.9722V16.4333C24.9722 15.0404 24.4189 13.7044 23.4339 12.7195C22.4489 11.7345 21.113 11.1811 19.72 11.1811C18.3506 11.1811 16.7556 12.0189 15.9822 13.2756V11.4872H11.4872V24.9722H15.9822V17.0294C15.9822 15.7889 16.9811 14.7739 18.2217 14.7739C18.8199 14.7739 19.3936 15.0115 19.8166 15.4345C20.2396 15.8575 20.4772 16.4312 20.4772 17.0294V24.9722H24.9722ZM6.25111 8.95778C6.96896 8.95778 7.65742 8.67261 8.16501 8.16501C8.67261 7.65742 8.95778 6.96896 8.95778 6.25111C8.95778 4.75278 7.74944 3.52833 6.25111 3.52833C5.52899 3.52833 4.83644 3.8152 4.32582 4.32582C3.8152 4.83644 3.52833 5.52899 3.52833 6.25111C3.52833 7.74944 4.75278 8.95778 6.25111 8.95778ZM8.49056 24.9722V11.4872H4.02778V24.9722H8.49056Z" fill="#727272"/>
</svg>
