<svg width="17" height="15" viewBox="0 0 17 15" fill="none" xmlns="http://www.w3.org/2000/svg">
<g id="Icons">
<path id="Vector" d="M1.7 14.4C1.2325 14.4 0.832433 14.2558 0.4998 13.9675C0.167167 13.6791 0.000566667 13.3321 0 12.9263V4.82105C0 4.41578 0.1666 4.06898 0.4998 3.78063C0.833 3.49227 1.23307 3.34785 1.7 3.34736H5.1V1.87368C5.1 1.46841 5.2666 1.12161 5.5998 0.833257C5.933 0.544906 6.33307 0.400485 6.8 0.399994H10.2C10.6675 0.399994 11.0678 0.544415 11.401 0.833257C11.7342 1.1221 11.9006 1.46891 11.9 1.87368V3.34736H15.3C15.7675 3.34736 16.1678 3.49178 16.501 3.78063C16.8342 4.06947 17.0006 4.41627 17 4.82105V12.9263C17 13.3316 16.8337 13.6786 16.501 13.9675C16.1684 14.2563 15.7681 14.4005 15.3 14.4H1.7ZM6.8 3.34736H10.2V1.87368H6.8V3.34736Z" fill="#484848"/>
</g>
</svg>
